<svg xmlns="http://www.w3.org/2000/svg" viewBox="0 0 800 600" width="800" height="600">
  <defs>
    <linearGradient id="bg-kids" x1="0" y1="0" x2="0" y2="1">
      <stop offset="0%" stop-color="#2a2a35"/>
      <stop offset="100%" stop-color="#1a1a25"/>
    </linearGradient>
  </defs>
  <rect width="800" height="600" fill="url(#bg-kids)"/>
  <rect x="140" y="260" width="280" height="180" rx="12" fill="#3a3a45"/>
  <rect x="150" y="270" width="260" height="70" rx="8" fill="#5a6a7a"/>
  <rect x="230" y="270" width="100" height="70" rx="8" fill="#6a7a8a"/>
  <rect x="160" y="275" width="50" height="35" rx="10" fill="#8a9aaa"/>
  <rect x="215" y="275" width="50" height="35" rx="10" fill="#8a9aaa"/>
  <polygon points="300,285 305,300 320,300 308,310 312,325 300,315 288,325 292,310 280,300 295,300" fill="#8a9aaa" opacity="0.6"/>
  <rect x="480" y="380" width="120" height="70" rx="6" fill="#4a4a55" stroke="#c19a6b" stroke-width="2"/>
  <rect x="500" y="365" width="20" height="15" rx="2" fill="#7a5a4a"/>
  <rect x="525" y="360" width="20" height="20" rx="2" fill="#5a7a5a"/>
  <rect x="550" y="368" width="20" height="12" rx="2" fill="#5a5a7a"/>
  <rect x="540" y="120" width="30" height="200" rx="2" fill="#3a3a45"/>
  <rect x="572" y="160" width="30" height="160" rx="2" fill="#3a3a45"/>
  <rect x="543" y="140" width="24" height="15" rx="1" fill="#7a5a5a"/>
  <rect x="543" y="158" width="24" height="12" rx="1" fill="#5a7a6a"/>
  <rect x="575" y="180" width="24" height="14" rx="1" fill="#6a5a7a"/>
  <ellipse cx="280" cy="460" rx="160" ry="25" fill="#4a5a5a" opacity="0.5"/>
  <ellipse cx="280" cy="460" rx="100" ry="15" fill="#5a6a6a" opacity="0.4"/>
  <rect x="0" y="520" width="800" height="80" fill="#1a1a25"/>
  <text x="400" y="580" text-anchor="middle" font-family="Georgia, serif" font-size="16" fill="#6a8a9a" letter-spacing="3">KIDS BEDROOM DESIGN</text>
  <text x="770" y="40" text-anchor="end" font-family="Georgia, serif" font-size="10" fill="#6a8a9a" opacity="0.5" letter-spacing="2">AHS INTERIOR</text>
</svg>
