<svg xmlns="http://www.w3.org/2000/svg" viewBox="0 0 800 600" width="800" height="600">
  <defs>
    <linearGradient id="bg-office" x1="0" y1="0" x2="0" y2="1">
      <stop offset="0%" stop-color="#1a2a35"/>
      <stop offset="100%" stop-color="#0a1a25"/>
    </linearGradient>
  </defs>
  <rect width="800" height="600" fill="url(#bg-office)"/>
  <rect x="500" y="40" width="300" height="480" fill="#2a3a45"/>
  <rect x="520" y="60" width="120" height="200" rx="4" fill="#4a6a85" opacity="0.6"/>
  <rect x="660" y="60" width="120" height="200" rx="4" fill="#4a6a85" opacity="0.6"/>
  <rect x="100" y="300" width="380" height="30" rx="4" fill="#3a4a55"/>
  <rect x="120" y="330" width="30" height="100" fill="#2a3a45"/>
  <rect x="430" y="330" width="30" height="100" fill="#2a3a45"/>
  <rect x="220" y="220" width="160" height="80" rx="4" fill="#1a1a2a"/>
  <rect x="225" y="225" width="150" height="65" rx="2" fill="#2a4a6a"/>
  <rect x="280" y="300" width="40" height="8" rx="2" fill="#3a4a55"/>
  <rect x="230" y="320" width="120" height="15" rx="3" fill="#2a3a45"/>
  <rect x="120" y="380" width="100" height="15" rx="5" fill="#1a2a35"/>
  <rect x="140" y="395" width="60" height="70" rx="4" fill="#2a3a45"/>
  <rect x="120" y="440" width="100" height="8" rx="3" fill="#1a2a35"/>
  <rect x="80" y="80" width="40" height="200" rx="2" fill="#2a3a45"/>
  <rect x="82" y="120" width="36" height="3" fill="#3a4a55"/>
  <rect x="82" y="160" width="36" height="3" fill="#3a4a55"/>
  <rect x="82" y="200" width="36" height="3" fill="#3a4a55"/>
  <rect x="0" y="520" width="800" height="80" fill="#0a1a25"/>
  <text x="400" y="570" text-anchor="middle" font-family="Georgia, serif" font-size="16" fill="#4a8aab" letter-spacing="3">EXECUTIVE OFFICE INTERIOR</text>
  <text x="770" y="40" text-anchor="end" font-family="Georgia, serif" font-size="10" fill="#4a8aab" opacity="0.5" letter-spacing="2">AHS INTERIOR</text>
</svg>
